<?xml version="1.0" encoding="iso-8859-1"?>
<!-- Generator: Adobe Illustrator 19.1.0, SVG Export Plug-In . SVG Version: 6.00 Build 0)  -->
<svg version="1.1" id="Capa_1" xmlns="http://www.w3.org/2000/svg" xmlns:xlink="http://www.w3.org/1999/xlink" x="0px" y="0px"
	 viewBox="0 0 470 470" style="enable-background:new 0 0 470 470;" xml:space="preserve">
<g>
	<path style="fill:#1F717A;" d="M427.676,209.945C439.009,194.458,445,176.101,445,156.859v-47.5c0-12.407-10.093-22.5-22.5-22.5
		H288.648c-12.407,0-22.5,10.093-22.5,22.5v32.5c0,4.142-3.358,7.5-7.5,7.5h-47.297c-4.142,0-7.5-3.358-7.5-7.5v-32.5
		c0-12.407-10.093-22.5-22.5-22.5H47.5c-12.407,0-22.5,10.093-22.5,22.5v47.5c0,49.626,40.374,90,90,90
		c43.834,0,81.937-32.491,88.852-75.656c0.066-0.379,0.105-0.6,0.112-0.638c0.013-0.073,0.034-0.141,0.048-0.213
		c0.03-0.145,0.06-0.289,0.098-0.43c0.026-0.099,0.057-0.196,0.087-0.293c0.041-0.131,0.083-0.261,0.131-0.389
		c0.037-0.099,0.076-0.197,0.117-0.294c0.051-0.12,0.104-0.238,0.16-0.354c0.047-0.097,0.094-0.193,0.145-0.287
		c0.061-0.113,0.126-0.224,0.193-0.333c0.054-0.089,0.107-0.178,0.165-0.264c0.075-0.113,0.155-0.221,0.236-0.329
		c0.057-0.076,0.112-0.154,0.171-0.228c0.101-0.126,0.21-0.245,0.319-0.364c0.045-0.049,0.087-0.101,0.134-0.149
		c0.325-0.334,0.68-0.637,1.061-0.906c0.033-0.023,0.068-0.044,0.102-0.066c0.157-0.107,0.317-0.21,0.483-0.305
		c0.055-0.031,0.111-0.059,0.167-0.089c0.147-0.08,0.295-0.156,0.447-0.226c0.07-0.032,0.142-0.061,0.214-0.091
		c0.14-0.059,0.28-0.115,0.424-0.166c0.085-0.03,0.171-0.057,0.257-0.084c0.132-0.041,0.266-0.079,0.401-0.113
		c0.099-0.025,0.199-0.048,0.299-0.069c0.124-0.026,0.249-0.048,0.374-0.067c0.112-0.017,0.224-0.034,0.337-0.046
		c0.119-0.013,0.239-0.021,0.359-0.028c0.118-0.007,0.236-0.015,0.356-0.016c0.034,0,0.068-0.005,0.102-0.005h47.297
		c0.036,0,0.072,0.004,0.108,0.005c0.115,0.002,0.229,0.009,0.342,0.016c0.125,0.007,0.249,0.016,0.372,0.029
		c0.111,0.012,0.22,0.028,0.33,0.045c0.127,0.02,0.253,0.042,0.379,0.068c0.101,0.021,0.201,0.044,0.3,0.069
		c0.133,0.034,0.265,0.071,0.395,0.112c0.089,0.028,0.178,0.056,0.266,0.087c0.138,0.049,0.274,0.103,0.408,0.16
		c0.078,0.033,0.156,0.064,0.232,0.099c0.143,0.066,0.282,0.139,0.421,0.213c0.064,0.035,0.13,0.067,0.193,0.104
		c0.151,0.087,0.297,0.182,0.441,0.279c0.047,0.032,0.096,0.061,0.143,0.093c0.376,0.266,0.727,0.566,1.048,0.896
		c0.061,0.062,0.116,0.13,0.174,0.194c0.095,0.105,0.19,0.209,0.279,0.319c0.066,0.081,0.126,0.167,0.188,0.25
		c0.075,0.101,0.15,0.201,0.22,0.306c0.061,0.091,0.117,0.185,0.174,0.28c0.063,0.105,0.126,0.21,0.184,0.319
		c0.052,0.097,0.102,0.196,0.15,0.295c0.055,0.114,0.107,0.23,0.157,0.347c0.042,0.099,0.082,0.198,0.119,0.299
		c0.047,0.127,0.089,0.256,0.13,0.386c0.03,0.098,0.061,0.195,0.088,0.294c0.038,0.141,0.068,0.285,0.098,0.43
		c0.015,0.072,0.036,0.141,0.049,0.213c0.007,0.039,0.045,0.26,0.112,0.638c6.915,43.165,45.018,75.656,88.852,75.656
		c19.243,0,37.6-5.991,53.086-17.324c3.266-2.391,7.813-1.745,10.302,1.402c3.833-3.283,7.407-6.857,10.69-10.69
		C425.932,217.758,425.287,213.21,427.676,209.945z M190,156.859c0,41.355-33.645,75-75,75s-75-33.645-75-75v-47.5
		c0-4.142,3.358-7.5,7.5-7.5h135c4.142,0,7.5,3.358,7.5,7.5V156.859z M355,231.859c-41.355,0-75-33.645-75-75v-47.5
		c0-4.142,3.358-7.5,7.5-7.5h135c4.142,0,7.5,3.358,7.5,7.5v47.5C430,198.214,396.355,231.859,355,231.859z"/>
	<path style="fill:#39494C;" d="M235,398.141c-19.649,0-38.008-10.243-48.48-26.58c-3.724,1.05-7.578,1.58-11.52,1.58v47.5
		c0,6.893,5.607,12.5,12.5,12.5c3.891,0,7.497-1.783,9.894-4.893c1.42-1.842,3.614-2.921,5.94-2.921c2.326,0,4.521,1.079,5.94,2.921
		c2.396,3.109,6.002,4.892,9.893,4.892s7.497-1.783,9.894-4.893c1.42-1.842,3.614-2.921,5.94-2.921c2.326,0,4.521,1.079,5.94,2.921
		c2.396,3.109,6.002,4.892,9.893,4.892c3.891,0,7.497-1.783,9.893-4.892c1.419-1.842,3.614-2.921,5.939-2.921
		c2.326,0,4.521,1.079,5.94,2.921c2.397,3.109,6.003,4.893,9.894,4.893c6.893,0,12.5-5.607,12.5-12.5v-47.5
		c-3.942,0-7.796-0.53-11.52-1.58C273.008,387.898,254.649,398.141,235,398.141z"/>
	<path style="fill:#39494C;" d="M175,71.859v-22.5c0-6.893-5.607-12.5-12.5-12.5c-3.891,0-7.497,1.783-9.894,4.893
		c-1.42,1.842-3.614,2.921-5.94,2.921c-2.326,0-4.521-1.079-5.94-2.921c-2.396-3.109-6.002-4.892-9.893-4.892
		s-7.497,1.783-9.894,4.893c-1.42,1.842-3.614,2.921-5.94,2.921c-2.326,0-4.521-1.079-5.94-2.921
		c-2.396-3.109-6.002-4.892-9.893-4.892c-3.891,0-7.497,1.783-9.893,4.892c-1.419,1.842-3.614,2.921-5.939,2.921
		c-2.326,0-4.521-1.079-5.94-2.921c-2.397-3.109-6.003-4.893-9.894-4.893c-6.893,0-12.5,5.607-12.5,12.5v22.5H175z"/>
	<path style="fill:#39494C;" d="M415,71.859v-22.5c0-6.893-5.607-12.5-12.5-12.5c-3.891,0-7.497,1.783-9.894,4.893
		c-1.42,1.842-3.614,2.921-5.94,2.921c-2.326,0-4.521-1.079-5.94-2.921c-2.396-3.109-6.002-4.892-9.893-4.892
		s-7.497,1.783-9.894,4.893c-1.42,1.842-3.614,2.921-5.94,2.921c-2.326,0-4.521-1.079-5.94-2.921
		c-2.396-3.109-6.002-4.892-9.893-4.892c-3.891,0-7.497,1.783-9.893,4.892c-1.419,1.842-3.614,2.921-5.939,2.921
		c-2.326,0-4.521-1.079-5.94-2.921c-2.397-3.109-6.003-4.893-9.894-4.893c-6.893,0-12.5,5.607-12.5,12.5v22.5H415z"/>
	<path style="fill:#FFAD85;" d="M217.657,179.359c-3.505,20.157-14.639,84.581-20.094,120.832
		c-0.923,6.131-1.732,11.693-2.406,16.532c-0.522,3.752-3.735,6.467-7.419,6.467c-0.344,0-0.692-0.024-1.043-0.073
		c-4.103-0.571-6.966-4.359-6.395-8.462c0.452-3.248,0.965-6.819,1.53-10.658c-2.212-0.566-4.494-0.861-6.831-0.861
		c-15.165,0-27.502,12.337-27.502,27.502c0,15.165,12.337,27.502,27.502,27.502c1.723,0,3.417-0.165,5.078-0.476
		c-1.129-3.645-1.903-7.396-2.287-11.228c-0.414-4.122,2.593-7.798,6.714-8.211c4.122-0.419,7.798,2.592,8.211,6.714
		c0.494,4.919,1.828,9.667,3.967,14.11c7.05,14.637,22.088,24.09,38.317,24.09s31.267-9.453,38.314-24.083
		c2.142-4.45,3.476-9.198,3.97-14.116c0.414-4.122,4.093-7.13,8.211-6.714c4.122,0.413,7.127,4.089,6.714,8.211
		c-0.384,3.831-1.158,7.582-2.287,11.227c1.661,0.31,3.355,0.476,5.078,0.476c15.165,0,27.502-12.337,27.502-27.502
		c0-15.165-12.337-27.502-27.502-27.502c-2.337,0-4.619,0.296-6.831,0.861c0.565,3.84,1.079,7.412,1.53,10.657
		c0.571,4.103-2.291,7.892-6.394,8.463c-0.351,0.049-0.7,0.073-1.044,0.073c-3.684,0-6.896-2.715-7.419-6.466
		c-0.673-4.835-1.483-10.398-2.406-16.533c-5.455-36.251-16.589-100.676-20.094-120.833H217.657z"/>
	<path style="fill:#081C1F;" d="M182.5,101.859h-135c-4.142,0-7.5,3.358-7.5,7.5v47.5c0,41.355,33.645,75,75,75s75-33.645,75-75
		v-47.5C190,105.217,186.642,101.859,182.5,101.859z M175,156.859c0,33.084-26.916,60-60,60s-60-26.916-60-60v-40h120V156.859z"/>
	<path style="fill:#081C1F;" d="M430,109.359c0-4.142-3.358-7.5-7.5-7.5h-135c-4.142,0-7.5,3.358-7.5,7.5v47.5
		c0,41.355,33.645,75,75,75s75-33.645,75-75V109.359z M415,156.859c0,33.084-26.916,60-60,60s-60-26.916-60-60v-40h120V156.859z"/>
	<path style="fill:#081C1F;" d="M462.5,149.359H460v-40c0-18.11-12.904-33.261-30-36.745V49.359c0-15.164-12.336-27.5-27.5-27.5
		c-5.776,0-11.261,1.773-15.833,5.015c-4.572-3.242-10.057-5.015-15.833-5.015S359.573,23.632,355,26.874
		c-4.572-3.242-10.057-5.015-15.833-5.015c-5.776,0-11.261,1.773-15.833,5.015c-4.573-3.242-10.057-5.015-15.833-5.015
		c-15.164,0-27.5,12.336-27.5,27.5v23.518c-16.52,3.916-28.852,18.781-28.852,36.482v25h-32.297v-25
		c0-17.701-12.331-32.566-28.852-36.482V49.359c0-15.164-12.336-27.5-27.5-27.5c-5.776,0-11.261,1.773-15.833,5.015
		c-4.572-3.242-10.057-5.015-15.833-5.015S119.573,23.632,115,26.874c-4.572-3.242-10.057-5.015-15.833-5.015
		c-5.776,0-11.261,1.773-15.833,5.015c-4.573-3.242-10.057-5.015-15.833-5.015c-15.164,0-27.5,12.336-27.5,27.5v23.255
		c-17.096,3.484-30,18.635-30,36.745v40H7.5c-4.142,0-7.5,3.358-7.5,7.5s3.358,7.5,7.5,7.5h2.771
		c3.859,54.41,49.354,97.5,104.729,97.5c25.221,0,49.604-9.076,68.656-25.555c3.917-3.388,7.542-7.054,10.887-10.937
		c-3.598,21.26-7.533,44.954-10.457,63.739c-2.959-0.645-5.994-0.969-9.087-0.969c-23.436,0-42.502,19.066-42.502,42.502
		c0,18.157,11.448,33.683,27.502,39.76v50.242c0,15.164,12.336,27.5,27.5,27.5c5.776,0,11.261-1.773,15.833-5.015
		c4.572,3.242,10.057,5.015,15.833,5.015s11.261-1.773,15.833-5.015c4.572,3.242,10.057,5.015,15.833,5.015
		c5.776,0,11.261-1.773,15.833-5.015c4.573,3.242,10.057,5.015,15.833,5.015c15.164,0,27.5-12.336,27.5-27.5v-50.242
		c16.054-6.077,27.502-21.604,27.502-39.76c0-23.436-19.066-42.502-42.502-42.502c-3.093,0-6.128,0.325-9.087,0.969
		c-2.923-18.785-6.859-42.479-10.457-63.739c3.345,3.883,6.971,7.549,10.887,10.937c19.052,16.479,43.435,25.555,68.656,25.555
		c22.45,0,43.87-6.992,61.945-20.219c3.343-2.446,4.069-7.139,1.623-10.481c-0.057-0.078-0.121-0.146-0.18-0.221
		c-2.489-3.146-7.036-3.793-10.302-1.402C392.6,240.868,374.243,246.859,355,246.859c-43.834,0-81.937-32.491-88.852-75.656
		c-0.066-0.379-0.105-0.6-0.112-0.638c-0.013-0.073-0.034-0.141-0.049-0.213c-0.03-0.145-0.06-0.289-0.098-0.43
		c-0.027-0.1-0.057-0.197-0.088-0.294c-0.04-0.13-0.083-0.259-0.13-0.386c-0.038-0.101-0.078-0.2-0.119-0.299
		c-0.05-0.117-0.102-0.233-0.157-0.347c-0.048-0.1-0.097-0.198-0.15-0.295c-0.058-0.108-0.121-0.214-0.184-0.319
		c-0.057-0.094-0.113-0.188-0.174-0.28c-0.07-0.105-0.145-0.205-0.22-0.306c-0.062-0.084-0.123-0.169-0.188-0.25
		c-0.089-0.11-0.184-0.214-0.279-0.319c-0.058-0.064-0.114-0.132-0.174-0.194c-0.321-0.33-0.672-0.63-1.048-0.896
		c-0.047-0.033-0.096-0.062-0.143-0.093c-0.144-0.097-0.29-0.192-0.441-0.279c-0.063-0.036-0.129-0.069-0.193-0.104
		c-0.138-0.074-0.277-0.147-0.421-0.213c-0.076-0.035-0.154-0.067-0.232-0.099c-0.135-0.057-0.27-0.111-0.408-0.16
		c-0.088-0.031-0.177-0.059-0.266-0.087c-0.13-0.041-0.262-0.078-0.395-0.112c-0.099-0.025-0.199-0.048-0.3-0.069
		c-0.125-0.026-0.251-0.048-0.379-0.068c-0.109-0.017-0.219-0.033-0.33-0.045c-0.123-0.014-0.247-0.022-0.372-0.029
		c-0.114-0.007-0.228-0.014-0.342-0.016c-0.036,0-0.071-0.005-0.108-0.005h-47.297c-0.034,0-0.068,0.004-0.102,0.005
		c-0.119,0.001-0.237,0.009-0.356,0.016c-0.12,0.007-0.24,0.015-0.359,0.028c-0.113,0.012-0.225,0.029-0.337,0.046
		c-0.126,0.02-0.251,0.042-0.374,0.067c-0.1,0.021-0.2,0.044-0.299,0.069c-0.135,0.034-0.268,0.072-0.401,0.113
		c-0.086,0.027-0.172,0.054-0.257,0.084c-0.144,0.051-0.284,0.107-0.424,0.166c-0.072,0.03-0.143,0.059-0.214,0.091
		c-0.152,0.07-0.3,0.147-0.447,0.226c-0.055,0.03-0.112,0.058-0.167,0.089c-0.165,0.095-0.325,0.198-0.483,0.305
		c-0.034,0.023-0.069,0.043-0.102,0.066c-0.381,0.269-0.736,0.572-1.061,0.906c-0.046,0.048-0.088,0.1-0.134,0.149
		c-0.109,0.119-0.217,0.238-0.319,0.364c-0.06,0.074-0.114,0.152-0.171,0.228c-0.081,0.108-0.161,0.216-0.236,0.329
		c-0.057,0.086-0.111,0.175-0.165,0.264c-0.067,0.109-0.132,0.22-0.193,0.333c-0.051,0.094-0.098,0.19-0.145,0.287
		c-0.056,0.117-0.11,0.234-0.16,0.354c-0.041,0.097-0.08,0.195-0.117,0.294c-0.048,0.128-0.09,0.258-0.131,0.389
		c-0.03,0.097-0.061,0.194-0.087,0.293c-0.038,0.141-0.068,0.286-0.098,0.43c-0.015,0.072-0.036,0.14-0.048,0.213
		c-0.007,0.039-0.045,0.26-0.112,0.638c-6.915,43.165-45.018,75.656-88.852,75.656c-49.626,0-90-40.374-90-90v-47.5
		c0-12.407,10.093-22.5,22.5-22.5h133.852c12.407,0,22.5,10.093,22.5,22.5v32.5c0,4.142,3.358,7.5,7.5,7.5h47.297
		c4.142,0,7.5-3.358,7.5-7.5v-32.5c0-12.407,10.093-22.5,22.5-22.5H422.5c12.407,0,22.5,10.093,22.5,22.5v47.5
		c0,19.242-5.991,37.599-17.324,53.086c-2.389,3.265-1.744,7.813,1.402,10.302c0.075,0.059,0.144,0.123,0.221,0.18
		c3.343,2.447,8.035,1.72,10.481-1.623c11.746-16.05,18.561-34.741,19.944-54.445h2.775c4.142,0,7.5-3.358,7.5-7.5
		S466.642,149.359,462.5,149.359z M307.5,36.859c3.891,0,7.497,1.783,9.894,4.893c1.42,1.842,3.614,2.921,5.94,2.921
		c2.326,0,4.52-1.079,5.939-2.921c2.396-3.109,6.002-4.892,9.893-4.892c3.891,0,7.497,1.783,9.893,4.892
		c1.42,1.842,3.614,2.921,5.94,2.921c2.326,0,4.521-1.079,5.94-2.921c2.397-3.109,6.003-4.893,9.894-4.893s7.497,1.783,9.893,4.892
		c1.419,1.842,3.614,2.921,5.939,2.921c2.326,0,4.521-1.079,5.94-2.921c2.397-3.109,6.003-4.893,9.894-4.893
		c6.893,0,12.5,5.607,12.5,12.5v22.5H295v-22.5C295,42.466,300.607,36.859,307.5,36.859z M67.5,36.859
		c3.891,0,7.497,1.783,9.894,4.893c1.42,1.842,3.614,2.921,5.94,2.921c2.326,0,4.52-1.079,5.939-2.921
		c2.396-3.109,6.002-4.892,9.893-4.892c3.891,0,7.497,1.783,9.893,4.892c1.42,1.842,3.614,2.921,5.94,2.921
		c2.326,0,4.521-1.079,5.94-2.921c2.397-3.109,6.003-4.893,9.894-4.893s7.497,1.783,9.893,4.892
		c1.419,1.842,3.614,2.921,5.939,2.921c2.326,0,4.521-1.079,5.94-2.921c2.397-3.109,6.003-4.893,9.894-4.893
		c6.893,0,12.5,5.607,12.5,12.5v22.5H55v-22.5C55,42.466,60.607,36.859,67.5,36.859z M272.437,300.192
		c0.923,6.135,1.732,11.697,2.406,16.533c0.522,3.751,3.735,6.466,7.419,6.466c0.344,0,0.693-0.024,1.044-0.073
		c4.103-0.571,6.965-4.36,6.394-8.463c-0.452-3.245-0.965-6.817-1.53-10.657c2.212-0.566,4.494-0.861,6.831-0.861
		c15.165,0,27.502,12.337,27.502,27.502c0,15.165-12.337,27.502-27.502,27.502c-1.723,0-3.417-0.165-5.078-0.476
		c1.129-3.645,1.903-7.396,2.287-11.227c0.414-4.122-2.592-7.798-6.714-8.211c-4.118-0.416-7.797,2.592-8.211,6.714
		c-0.494,4.919-1.828,9.666-3.967,14.11c-7.05,14.637-22.088,24.09-38.317,24.09s-31.267-9.453-38.314-24.083
		c-2.142-4.45-3.476-9.198-3.97-14.117c-0.413-4.122-4.089-7.133-8.211-6.714c-4.121,0.413-7.127,4.089-6.714,8.211
		c0.384,3.831,1.158,7.583,2.287,11.228c-1.661,0.31-3.355,0.476-5.078,0.476c-15.165,0-27.502-12.337-27.502-27.502
		c0-15.165,12.337-27.502,27.502-27.502c2.337,0,4.619,0.296,6.831,0.861c-0.565,3.838-1.078,7.41-1.53,10.658
		c-0.571,4.103,2.292,7.891,6.395,8.462c0.351,0.049,0.699,0.073,1.043,0.073c3.684,0,6.897-2.715,7.419-6.467
		c0.674-4.839,1.483-10.401,2.406-16.531c5.456-36.253,16.589-100.676,20.094-120.833h34.686
		C255.848,199.516,266.982,263.941,272.437,300.192z M295,420.641c0,6.893-5.607,12.5-12.5,12.5c-3.891,0-7.497-1.783-9.894-4.893
		c-1.42-1.842-3.614-2.921-5.94-2.921c-2.326,0-4.52,1.079-5.939,2.921c-2.396,3.109-6.002,4.892-9.893,4.892
		c-3.891,0-7.497-1.783-9.893-4.892c-1.42-1.842-3.614-2.921-5.94-2.921c-2.326,0-4.521,1.079-5.94,2.921
		c-2.397,3.109-6.003,4.893-9.894,4.893s-7.497-1.783-9.893-4.892c-1.419-1.842-3.614-2.921-5.939-2.921
		c-2.326,0-4.521,1.079-5.94,2.921c-2.397,3.109-6.003,4.893-9.894,4.893c-6.893,0-12.5-5.607-12.5-12.5v-47.5
		c3.942,0,7.796-0.53,11.52-1.58c10.472,16.337,28.831,26.58,48.48,26.58s38.008-10.243,48.48-26.58
		c3.724,1.05,7.578,1.58,11.52,1.58V420.641z"/>
</g>
<g>
</g>
<g>
</g>
<g>
</g>
<g>
</g>
<g>
</g>
<g>
</g>
<g>
</g>
<g>
</g>
<g>
</g>
<g>
</g>
<g>
</g>
<g>
</g>
<g>
</g>
<g>
</g>
<g>
</g>
</svg>
